<?xml version="1.0" encoding="UTF-8" standalone="no"?>
<svg
   xmlns:dc="http://purl.org/dc/elements/1.1/"
   xmlns:cc="http://creativecommons.org/ns#"
   xmlns:rdf="http://www.w3.org/1999/02/22-rdf-syntax-ns#"
   xmlns:svg="http://www.w3.org/2000/svg"
   xmlns="http://www.w3.org/2000/svg"
   viewBox="0 0 358.66666 64"
   height="64"
   width="358.66666"
   xml:space="preserve"
   id="svg2"
   version="1.1"><metadata
     id="metadata8"><rdf:RDF><cc:Work
         rdf:about=""><dc:format>image/svg+xml</dc:format><dc:type
           rdf:resource="http://purl.org/dc/dcmitype/StillImage" /></cc:Work></rdf:RDF></metadata><defs
     id="defs6"><clipPath
       id="clipPath18"
       clipPathUnits="userSpaceOnUse"><path
         id="path16"
         d="M 0,48 H 269 V 0 H 0 Z" /></clipPath></defs><g
     transform="matrix(1.3333333,0,0,-1.3333333,0,64)"
     id="g10"><g
       id="g12"><g
         clip-path="url(#clipPath18)"
         id="g14"><g
           transform="translate(22.4517,40.6211)"
           id="g20"><path
             id="path22"
             style="fill:#4488d8;fill-opacity:1;fill-rule:nonzero;stroke:none"
             d="m 0,0 -1.794,-2.236 c -1.326,1.43 -3.224,2.314 -5.07,2.314 -3.64,0 -6.5,-2.808 -6.5,-6.396 0,-3.589 2.86,-6.423 6.5,-6.423 1.82,0 3.692,0.832 5.07,2.158 l 1.82,-2.028 c -1.846,-1.82 -4.472,-2.99 -7.047,-2.99 -5.33,0 -9.463,4.03 -9.463,9.257 0,5.174 4.186,9.152 9.568,9.152 C -4.342,2.808 -1.768,1.742 0,0" /></g><g
           transform="translate(33.6831,30.0127)"
           id="g24"><path
             id="path26"
             style="fill:#4488d8;fill-opacity:1;fill-rule:nonzero;stroke:none"
             d="m 0,0 v 1.274 h -3.744 c -1.95,0 -2.86,-0.52 -2.86,-1.846 0,-1.248 1.014,-2.054 2.678,-2.054 2.132,0 3.77,1.118 3.926,2.626 m 0.026,-3.172 c -0.988,-1.222 -2.574,-1.82 -4.576,-1.82 -2.991,0 -4.863,1.846 -4.863,4.29 0,2.522 1.898,4.134 5.226,4.16 H 0 v 0.416 c 0,1.742 -1.118,2.782 -3.302,2.782 -1.326,0 -2.704,-0.468 -4.082,-1.404 l -1.222,2.08 c 1.923,1.144 3.328,1.742 5.954,1.742 3.562,0 5.564,-1.82 5.59,-4.862 L 2.964,-4.862 H 0.026 Z" /></g><g
           transform="translate(43.6411,36.2271)"
           id="g28"><path
             id="path30"
             style="fill:#4488d8;fill-opacity:1;fill-rule:nonzero;stroke:none"
             d="M 0,0 C 0.936,1.872 2.6,2.86 4.784,2.86 V 0 C 2.002,0.156 0.234,-1.482 0,-3.849 v -7.228 H -2.99 V 2.756 H 0 Z" /></g><g
           transform="translate(60.4629,33.1069)"
           id="g32"><path
             id="path34"
             style="fill:#4488d8;fill-opacity:1;fill-rule:nonzero;stroke:none"
             d="M 0,0 C -0.104,2.236 -1.586,3.588 -3.848,3.588 -6.032,3.588 -7.566,2.21 -7.904,0 Z M 2.6,-2.185 H -7.852 c 0.468,-2.131 2.106,-3.458 4.29,-3.458 1.508,0 2.886,0.573 3.9,1.613 l 1.586,-1.691 c -1.352,-1.482 -3.328,-2.34 -5.72,-2.34 -4.264,0 -7.072,2.834 -7.072,6.995 0,4.186 2.886,7.02 6.994,7.046 4.862,0 6.838,-3.172 6.474,-8.165" /></g><g
           transform="translate(75.751,33.1069)"
           id="g36"><path
             id="path38"
             style="fill:#4488d8;fill-opacity:1;fill-rule:nonzero;stroke:none"
             d="M 0,0 C -0.104,2.236 -1.586,3.588 -3.848,3.588 -6.032,3.588 -7.566,2.21 -7.904,0 Z M 2.6,-2.185 H -7.852 c 0.468,-2.131 2.106,-3.458 4.29,-3.458 1.508,0 2.886,0.573 3.9,1.613 l 1.586,-1.691 c -1.352,-1.482 -3.328,-2.34 -5.72,-2.34 -4.264,0 -7.072,2.834 -7.072,6.995 0,4.186 2.886,7.02 6.994,7.046 4.862,0 6.838,-3.172 6.474,-8.165" /></g><g
           transform="translate(84.4609,36.2271)"
           id="g40"><path
             id="path42"
             style="fill:#4488d8;fill-opacity:1;fill-rule:nonzero;stroke:none"
             d="M 0,0 C 0.936,1.872 2.6,2.86 4.784,2.86 V 0 C 2.002,0.156 0.234,-1.482 0,-3.849 v -7.228 H -2.99 V 2.756 H 0 Z" /></g><g
           transform="translate(110.9551,41.6089)"
           id="g44"><path
             id="path46"
             style="fill:#4488d8;fill-opacity:1;fill-rule:nonzero;stroke:none"
             d="m 0,0 -1.274,-2.704 c -1.976,1.196 -3.952,1.69 -5.33,1.69 -1.794,0 -2.964,-0.676 -2.964,-1.898 0,-3.978 9.828,-1.846 9.802,-8.399 0,-3.25 -2.86,-5.251 -6.864,-5.251 -2.861,0 -5.565,1.169 -7.437,2.886 l 1.326,2.652 c 1.872,-1.716 4.213,-2.652 6.162,-2.652 2.133,0 3.407,0.806 3.407,2.21 0,4.056 -9.828,1.794 -9.828,8.268 0,3.12 2.677,5.07 6.629,5.07 C -4.004,1.872 -1.69,1.118 0,0" /></g><g
           transform="translate(127.1528,25.1504)"
           id="g48"><path
             id="path50"
             style="fill:#4488d8;fill-opacity:1;fill-rule:nonzero;stroke:none"
             d="m 0,0 h -2.99 v 2.704 c -0.936,-1.924 -2.678,-2.782 -4.94,-2.808 -3.173,0 -5.07,2.028 -5.07,5.33 v 8.607 h 2.99 V 6.058 c 0,-2.08 1.222,-3.354 3.224,-3.354 2.392,0.052 3.796,1.898 3.796,4.316 v 6.813 H 0 Z" /></g><g
           transform="translate(143.1162,32.1187)"
           id="g52"><path
             id="path54"
             style="fill:#4488d8;fill-opacity:1;fill-rule:nonzero;stroke:none"
             d="M 0,0 C 0,2.574 -1.742,4.472 -4.212,4.472 -6.682,4.472 -8.424,2.6 -8.424,0 c 0,-2.678 1.742,-4.524 4.212,-4.524 C -1.742,-4.524 0,-2.652 0,0 m 3.017,-0.104 c 0,-4.134 -2.601,-6.968 -6.553,-6.968 -2.21,0 -3.874,0.884 -4.888,2.496 v -7.436 h -2.99 V 6.864 h 2.99 V 4.472 c 1.014,1.612 2.678,2.496 4.836,2.496 3.926,0 6.605,-2.86 6.605,-7.072" /></g><g
           transform="translate(160.7959,32.1187)"
           id="g56"><path
             id="path58"
             style="fill:#4488d8;fill-opacity:1;fill-rule:nonzero;stroke:none"
             d="M 0,0 C 0,2.574 -1.742,4.472 -4.212,4.472 -6.682,4.472 -8.424,2.6 -8.424,0 c 0,-2.678 1.742,-4.524 4.212,-4.524 C -1.742,-4.524 0,-2.652 0,0 m 3.017,-0.104 c 0,-4.134 -2.601,-6.968 -6.553,-6.968 -2.21,0 -3.874,0.884 -4.888,2.496 v -7.436 h -2.99 V 6.864 h 2.99 V 4.472 c 1.014,1.612 2.678,2.496 4.836,2.496 3.926,0 6.605,-2.86 6.605,-7.072" /></g><g
           transform="translate(168.6211,32.0405)"
           id="g60"><path
             id="path62"
             style="fill:#4488d8;fill-opacity:1;fill-rule:nonzero;stroke:none"
             d="m 0,0 c 0,-2.678 1.742,-4.498 4.238,-4.498 2.471,0 4.213,1.82 4.213,4.498 0,2.652 -1.742,4.472 -4.213,4.472 C 1.742,4.472 0,2.652 0,0 m 11.44,0.026 c 0,-4.16 -2.937,-7.02 -7.202,-7.02 -4.29,0 -7.227,2.86 -7.227,7.02 0,4.186 2.937,7.02 7.227,7.02 4.265,0 7.202,-2.834 7.202,-7.02" /></g><g
           transform="translate(186.1719,36.2271)"
           id="g64"><path
             id="path66"
             style="fill:#4488d8;fill-opacity:1;fill-rule:nonzero;stroke:none"
             d="M 0,0 C 0.936,1.872 2.6,2.86 4.784,2.86 V 0 C 2.002,0.156 0.233,-1.482 0,-3.849 v -7.228 H -2.99 V 2.756 H 0 Z" /></g><g
           transform="translate(201.252,26.0347)"
           id="g68"><path
             id="path70"
             style="fill:#4488d8;fill-opacity:1;fill-rule:nonzero;stroke:none"
             d="m 0,0 c -1.092,-0.65 -2.236,-1.014 -3.406,-1.014 -2.08,0 -3.874,1.196 -3.874,4.03 v 7.176 h -1.95 v 2.236 h 1.95 v 3.797 h 2.964 v -3.797 h 4.082 v -2.236 h -4.082 v -6.63 c 0,-1.43 0.545,-1.872 1.482,-1.872 0.624,0 1.273,0.208 2.08,0.598 z" /></g><g
           transform="translate(223.6562,25.1504)"
           id="g72"><path
             id="path74"
             style="fill:#2b2d3a;fill-opacity:1;fill-rule:nonzero;stroke:none"
             d="M 0,0 V 7.541 H -9.646 V 0 h -3.069 v 18.201 h 3.069 V 10.296 H 0 v 7.905 H 3.068 V 0 Z" /></g><g
           transform="translate(243.8838,25.1504)"
           id="g76"><path
             id="path78"
             style="fill:#2b2d3a;fill-opacity:1;fill-rule:nonzero;stroke:none"
             d="m 0,0 h -2.99 v 2.704 c -0.937,-1.924 -2.679,-2.782 -4.941,-2.808 -3.172,0 -5.07,2.028 -5.07,5.33 v 8.607 h 2.99 V 6.058 c 0,-2.08 1.222,-3.354 3.225,-3.354 2.391,0.052 3.796,1.898 3.796,4.316 v 6.813 H 0 Z" /></g><g
           transform="translate(259.8477,32.1187)"
           id="g80"><path
             id="path82"
             style="fill:#2b2d3a;fill-opacity:1;fill-rule:nonzero;stroke:none"
             d="M 0,0 C 0,2.574 -1.742,4.472 -4.212,4.472 -6.683,4.472 -8.425,2.6 -8.425,0 c 0,-2.678 1.742,-4.524 4.213,-4.524 C -1.742,-4.524 0,-2.652 0,0 m 3.016,-0.104 c 0,-4.134 -2.6,-6.968 -6.552,-6.968 -2.21,0 -3.874,0.884 -4.889,2.496 v -2.392 h -2.99 v 19.292 h 2.99 V 4.472 c 1.015,1.612 2.679,2.496 4.837,2.496 3.926,0 6.604,-2.86 6.604,-7.072" /></g><g
           transform="translate(127.9673,4.8721)"
           id="g84"><path
             id="path86"
             style="fill:#2b2d3a;fill-opacity:1;fill-rule:nonzero;stroke:none"
             d="M 0,0 -2.821,9.281 -5.677,0 h -2.074 l -3.944,11.899 h 2.159 l 2.89,-9.672 2.873,9.655 1.971,0.017 2.89,-9.672 2.873,9.672 H 6.035 L 2.057,0 Z" /></g><g
           transform="translate(140.6162,10.0742)"
           id="g88"><path
             id="path90"
             style="fill:#2b2d3a;fill-opacity:1;fill-rule:nonzero;stroke:none"
             d="M 0,0 C -0.068,1.462 -1.037,2.346 -2.516,2.346 -3.943,2.346 -4.946,1.444 -5.168,0 Z m 1.699,-1.429 h -6.833 c 0.306,-1.393 1.377,-2.26 2.805,-2.26 0.986,0 1.887,0.374 2.55,1.054 L 1.258,-3.74 c -0.884,-0.969 -2.176,-1.53 -3.74,-1.53 -2.788,0 -4.623,1.853 -4.623,4.573 0,2.736 1.886,4.59 4.572,4.606 3.179,0 4.47,-2.074 4.232,-5.338" /></g><g
           transform="translate(158.7549,10.7197)"
           id="g92"><path
             id="path94"
             style="fill:#2b2d3a;fill-opacity:1;fill-rule:nonzero;stroke:none"
             d="m 0,0 v -4.386 c -1.207,-0.918 -2.992,-1.547 -4.624,-1.547 -3.519,0 -6.255,2.635 -6.255,6.035 0,3.4 2.771,6.001 6.374,6.001 1.7,0 3.4,-0.647 4.572,-1.666 L -1.071,2.958 c -0.918,0.85 -2.193,1.359 -3.434,1.359 -2.431,0 -4.335,-1.852 -4.335,-4.215 0,-2.379 1.921,-4.233 4.352,-4.233 0.884,0 1.886,0.307 2.737,0.817 V 0 Z" /></g><g
           transform="translate(167.7305,10.0742)"
           id="g96"><path
             id="path98"
             style="fill:#2b2d3a;fill-opacity:1;fill-rule:nonzero;stroke:none"
             d="M 0,0 C -0.067,1.462 -1.037,2.346 -2.516,2.346 -3.943,2.346 -4.946,1.444 -5.167,0 Z m 1.7,-1.429 h -6.833 c 0.306,-1.393 1.376,-2.26 2.805,-2.26 0.985,0 1.887,0.374 2.55,1.054 L 1.258,-3.74 c -0.884,-0.969 -2.176,-1.53 -3.739,-1.53 -2.789,0 -4.624,1.853 -4.624,4.573 0,2.736 1.887,4.59 4.573,4.606 3.178,0 4.47,-2.074 4.232,-5.338" /></g><g
           transform="translate(176.5879,5.4502)"
           id="g100"><path
             id="path102"
             style="fill:#2b2d3a;fill-opacity:1;fill-rule:nonzero;stroke:none"
             d="m 0,0 c -0.715,-0.425 -1.462,-0.663 -2.228,-0.663 -1.359,0 -2.532,0.782 -2.532,2.635 v 4.691 h -1.275 v 1.462 h 1.275 v 2.482 h 1.938 V 8.125 h 2.669 V 6.663 H -2.822 V 2.329 c 0,-0.935 0.357,-1.225 0.968,-1.225 0.409,0 0.833,0.137 1.361,0.392 z" /></g><g
           transform="translate(187.7734,4.8721)"
           id="g104"><path
             id="path106"
             style="fill:#2b2d3a;fill-opacity:1;fill-rule:nonzero;stroke:none"
             d="m 0,0 h -1.988 v 3.893 l -4.437,8.006 h 2.023 l 3.399,-5.796 3.332,5.796 h 2.04 L 0,3.961 Z" /></g><g
           transform="translate(193.792,9.377)"
           id="g108"><path
             id="path110"
             style="fill:#2b2d3a;fill-opacity:1;fill-rule:nonzero;stroke:none"
             d="m 0,0 c 0,-1.751 1.139,-2.94 2.771,-2.94 1.615,0 2.753,1.189 2.753,2.94 0,1.733 -1.138,2.924 -2.753,2.924 C 1.139,2.924 0,1.733 0,0 m 7.479,0.017 c 0,-2.72 -1.92,-4.589 -4.708,-4.589 -2.805,0 -4.726,1.869 -4.726,4.589 0,2.737 1.921,4.589 4.726,4.589 2.788,0 4.708,-1.852 4.708,-4.589" /></g><g
           transform="translate(211.5225,4.8721)"
           id="g112"><path
             id="path114"
             style="fill:#2b2d3a;fill-opacity:1;fill-rule:nonzero;stroke:none"
             d="m 0,0 h -1.955 v 1.769 c -0.611,-1.259 -1.751,-1.82 -3.23,-1.836 -2.073,0 -3.314,1.325 -3.314,3.484 v 5.626 h 1.955 V 3.961 c 0,-1.36 0.799,-2.192 2.107,-2.192 1.564,0.033 2.482,1.24 2.482,2.821 V 9.043 H 0 Z" /></g><g
           transform="translate(227.2305,4.8721)"
           id="g116"><path
             id="path118"
             style="fill:#2b2d3a;fill-opacity:1;fill-rule:nonzero;stroke:none"
             d="M 0,0 V 4.93 H -6.307 V 0 h -2.006 v 11.899 h 2.006 V 6.731 H 0 v 5.168 H 2.006 V 0 Z" /></g><path
           id="path120"
           style="fill:#2b2d3a;fill-opacity:1;fill-rule:nonzero;stroke:none"
           d="m 232.246,13.915 h 1.937 V 4.872 h -1.937 z m 2.108,2.584 c 0,-0.68 -0.494,-1.173 -1.139,-1.173 -0.647,0 -1.139,0.493 -1.139,1.173 0,0.697 0.492,1.19 1.139,1.19 0.645,0 1.139,-0.493 1.139,-1.19" /><g
           transform="translate(239.0283,12.1133)"
           id="g122"><path
             id="path124"
             style="fill:#2b2d3a;fill-opacity:1;fill-rule:nonzero;stroke:none"
             d="M 0,0 C 0.612,1.225 1.7,1.87 3.128,1.87 V 0 C 1.31,0.103 0.153,-0.969 0,-2.516 V -7.241 H -1.954 V 1.802 H 0 Z" /></g><g
           transform="translate(250.0273,10.0742)"
           id="g126"><path
             id="path128"
             style="fill:#2b2d3a;fill-opacity:1;fill-rule:nonzero;stroke:none"
             d="M 0,0 C -0.068,1.462 -1.037,2.346 -2.516,2.346 -3.943,2.346 -4.946,1.444 -5.168,0 Z m 1.699,-1.429 h -6.833 c 0.306,-1.393 1.377,-2.26 2.805,-2.26 0.986,0 1.887,0.374 2.55,1.054 L 1.258,-3.74 c -0.884,-0.969 -2.176,-1.53 -3.74,-1.53 -2.788,0 -4.623,1.853 -4.623,4.573 0,2.736 1.886,4.59 4.572,4.606 3.179,0 4.47,-2.074 4.232,-5.338" /></g><g
           transform="translate(260.4316,9.3604)"
           id="g130"><path
             id="path132"
             style="fill:#2b2d3a;fill-opacity:1;fill-rule:nonzero;stroke:none"
             d="M 0,0 C 0,1.75 -1.14,2.975 -2.771,2.975 -4.403,2.975 -5.542,1.733 -5.559,0 -5.542,-1.718 -4.42,-2.941 -2.771,-2.941 -1.14,-2.941 0,-1.718 0,0 M 1.954,-4.488 H 0 v 1.547 c -0.646,-1.054 -1.734,-1.632 -3.179,-1.632 -2.601,0 -4.335,1.886 -4.335,4.64 0,2.72 1.751,4.573 4.301,4.573 1.462,0 2.55,-0.595 3.213,-1.649 v 5.134 h 1.954 z" /></g></g></g></g></svg>